<?xml version="1.0" encoding="UTF-8" standalone="no"?>
<!-- Created with Inkscape (http://www.inkscape.org/) -->

<svg
   xmlns:dc="http://purl.org/dc/elements/1.1/"
   xmlns:cc="http://creativecommons.org/ns#"
   xmlns:rdf="http://www.w3.org/1999/02/22-rdf-syntax-ns#"
   xmlns:svg="http://www.w3.org/2000/svg"
   xmlns="http://www.w3.org/2000/svg"
   xmlns:sodipodi="http://sodipodi.sourceforge.net/DTD/sodipodi-0.dtd"
   xmlns:inkscape="http://www.inkscape.org/namespaces/inkscape"
   width="744.09448819"
   height="1052.3622047"
   id="svg2"
   version="1.1"
   inkscape:version="0.48.4 r9939"
   inkscape:export-filename="/home/dko/Projects/Barobo/barobo-content/src/img/bump-star.png"
   inkscape:export-xdpi="300"
   inkscape:export-ydpi="300"
   sodipodi:docname="New document 1">
  <defs
     id="defs4" />
  <sodipodi:namedview
     id="base"
     pagecolor="#ffffff"
     bordercolor="#666666"
     borderopacity="1.0"
     inkscape:pageopacity="0.0"
     inkscape:pageshadow="2"
     inkscape:zoom="1.4"
     inkscape:cx="-71.64039"
     inkscape:cy="548.05387"
     inkscape:document-units="px"
     inkscape:current-layer="layer1"
     showgrid="false"
     inkscape:window-width="1920"
     inkscape:window-height="1056"
     inkscape:window-x="0"
     inkscape:window-y="24"
     inkscape:window-maximized="1" />
  <metadata
     id="metadata7">
    <rdf:RDF>
      <cc:Work
         rdf:about="">
        <dc:format>image/svg+xml</dc:format>
        <dc:type
           rdf:resource="http://purl.org/dc/dcmitype/StillImage" />
        <dc:title></dc:title>
      </cc:Work>
    </rdf:RDF>
  </metadata>
  <g
     inkscape:label="Layer 1"
     inkscape:groupmode="layer"
     id="layer1">
    <path
       sodipodi:type="inkscape:offset"
       inkscape:radius="-9.5457897"
       inkscape:original="M 148.25 339.46875 C 144.57704 337.768 92.449817 403.70281 88.0625 403.90625 C 83.764526 404.10555 31.686502 353.02281 28.46875 355.3125 C 25.18411 357.64979 78.778581 433.72889 76.9375 437.34375 C 75.13391 440.885 -22.370652 446.37513 -22.625 450.5625 C -22.884635 454.83692 62.32143 470.46415 63.40625 474.46875 C 64.468979 478.3918 26.410719 537.49477 29.375 540.21875 C 32.400899 542.99936 93.016821 505.69395 96.9375 506.46875 C 100.77834 507.22777 123.82789 584.83377 127.65625 583.8125 C 131.56419 582.77 120.42605 484.54597 123.90625 482.4375 C 127.31558 480.37196 206.56553 515.28309 208.40625 511.46875 C 210.28523 507.57512 143.52737 463.18402 144.21875 459.25 C 144.89606 455.39609 225.36977 427.07065 224.125 423.21875 C 222.85435 419.28678 143.0224 431.75631 140.03125 428.8125 C 137.10101 425.92864 151.84816 341.13486 148.25 339.46875 z "
       style="fill:#ffffff;fill-opacity:1;stroke:#000000;stroke-width:2.20000000000000018;stroke-linecap:butt;stroke-miterlimit:4;stroke-opacity:1;stroke-dasharray:none;stroke-dashoffset:0"
       id="path3001"
       d="m 137.1875,364.09375 c -3.8135,4.33149 -7.3406,8.26059 -11.53125,13.125 -7.0112,8.13844 -14.05937,16.36026 -19.75,22.6875 -2.84531,3.16362 -5.34361,5.81937 -7.46875,7.90625 -1.062572,1.04344 -2.001891,1.94824 -3.09375,2.8125 -0.54593,0.43213 -1.102545,0.84603 -1.96875,1.34375 -0.866205,0.49772 -1.867995,1.32932 -4.875,1.46875 -5.203453,0.24129 -5.452624,-1.17449 -6.59375,-1.84375 -1.141126,-0.66926 -2.136881,-1.34953 -3.21875,-2.15625 -2.163738,-1.61344 -4.653072,-3.66422 -7.5,-6.09375 -1.94275,-1.65792 -4.520555,-4.00262 -6.71875,-5.9375 4.77426,7.40369 9.695664,14.99651 13.34375,20.9375 2.409343,3.92367 4.401019,7.26955 5.875,10.0625 0.736991,1.39647 1.337012,2.63101 1.875,4.03125 0.268994,0.70012 0.559594,1.42232 0.78125,2.59375 0.221656,1.17143 0.981986,2.9488 -0.90625,6.65625 -1.973002,3.87388 -3.783503,4.09799 -4.8125,4.59375 -1.028997,0.49576 -1.726178,0.70005 -2.4375,0.90625 -1.422645,0.41241 -2.771407,0.68793 -4.375,0.96875 -3.207186,0.56164 -7.273776,1.10694 -12.0625,1.65625 -9.577448,1.09862 -21.977195,2.23814 -34.28125,3.40625 -1.491554,0.1416 -2.578794,0.26418 -4.0625,0.40625 10.202274,2.3541 20.469282,4.72961 28.4375,6.78125 4.176262,1.0753 7.728248,2.03558 10.59375,3 1.432751,0.48221 2.666383,0.95518 4.03125,1.625 0.682433,0.33491 1.38551,0.68321 2.375,1.4375 0.98949,0.75429 2.767822,1.75894 3.78125,5.5 1.401756,5.17457 0.0095,5.67785 -0.40625,6.90625 -0.415705,1.2284 -0.885846,2.28827 -1.4375,3.46875 -1.103308,2.36097 -2.546167,5.12456 -4.28125,8.28125 -3.470165,6.31338 -8.068462,14.1542 -12.5625,21.9375 -1.654902,2.86615 -2.808872,5.06071 -4.375,7.8125 3.017719,-1.64374 5.468521,-2.87521 8.625,-4.625 7.986077,-4.42706 16.032285,-8.94743 22.46875,-12.375 3.218232,-1.71379 6.017083,-3.13095 8.375,-4.21875 1.178958,-0.5439 2.241015,-1.00024 3.40625,-1.40625 1.165235,-0.40601 1.378176,-1.63754 6.34375,-0.65625 3.69122,0.72945 4.78395,2.31195 5.59375,3.1875 0.8098,0.87555 1.20842,1.50779 1.59375,2.125 0.77066,1.23441 1.31053,2.35693 1.90625,3.65625 1.19144,2.59864 2.4561,5.80789 3.875,9.59375 1.25309,3.34344 2.80568,7.93526 4.21875,11.9375 -0.7437,-10.01503 -1.53011,-20.23748 -1.9375,-28.09375 -0.25196,-4.85892 -0.38497,-8.95406 -0.34375,-12.25 0.0206,-1.64797 0.0791,-3.0659 0.28125,-4.59375 0.10108,-0.76392 0.20815,-1.5411 0.59375,-2.71875 0.3856,-1.17765 0.54463,-3.3167 4.40625,-5.65625 3.13281,-1.89801 4.61554,-1.49174 5.6875,-1.46875 1.07196,0.023 1.77594,0.12256 2.46875,0.25 1.38562,0.25488 2.63038,0.60138 4.0625,1.03125 2.86424,0.85974 6.34968,2.10006 10.40625,3.59375 5.22462,1.92379 12.00549,4.58581 18.4375,7.09375 -3.98911,-2.96701 -8.44408,-6.1927 -11.6875,-8.71875 -3.15861,-2.46 -5.79396,-4.60865 -7.90625,-6.53125 -1.05614,-0.9613 -1.97509,-1.84176 -2.9375,-3 -0.4812,-0.57912 -0.99708,-1.18937 -1.59375,-2.3125 -0.59667,-1.12313 -1.74821,-2.90109 -1.09375,-6.625 0.67529,-3.84242 2.22846,-4.8169 3.0625,-5.625 0.83404,-0.8081 1.4613,-1.25299 2.0625,-1.65625 1.20241,-0.80653 2.30745,-1.3924 3.625,-2.0625 2.6351,-1.34021 5.94,-2.83114 9.84375,-4.5 5.0318,-2.1511 11.69936,-4.80656 18,-7.34375 -5.62116,0.60749 -11.68925,1.3141 -16.3125,1.71875 -4.06494,0.35578 -7.5542,0.62736 -10.4375,0.6875 -1.44165,0.0301 -2.69587,0.008 -4.09375,-0.125 -0.69894,-0.0665 -1.44462,-0.13667 -2.46875,-0.40625 -1.02413,-0.26958 -2.46514,-0.40755 -4.75,-2.65625 -2.53171,-2.49164 -2.5617,-4.06792 -2.8125,-5.125 -0.2508,-1.05708 -0.32584,-1.78775 -0.375,-2.5 -0.0983,-1.42449 -0.0668,-2.72056 0,-4.21875 0.13354,-2.99637 0.4696,-6.64823 0.9375,-10.9375 0.93581,-8.57855 2.40957,-19.53169 3.84375,-30.40625 0.88715,-6.72676 1.51954,-12.32006 2.25,-18.34375 z" />
  </g>
</svg>
